<svg width="501" height="145" viewBox="0 0 501 145" fill="none" xmlns="http://www.w3.org/2000/svg">
<path d="M68.5214 144.893C55.9161 144.893 44.4859 141.902 34.2308 135.92C23.9756 129.938 15.857 121.819 9.87485 111.564C3.89269 101.309 0.901611 89.665 0.901611 76.6324C0.901611 63.5999 3.78587 52.0629 9.55437 42.0214C15.5365 31.7663 23.762 23.6476 34.2308 17.6655C44.6995 11.6833 56.557 8.69224 69.8032 8.69224C79.2038 8.69224 87.6429 9.86731 95.1206 12.2174C102.812 14.5676 109.862 18.3064 116.272 23.434C119.69 26.2114 121.399 29.8434 121.399 34.3301C121.399 37.9621 120.117 41.06 117.554 43.6238C114.99 46.1875 111.892 47.4694 108.26 47.4694C105.91 47.4694 103.239 46.508 100.248 44.5852C95.5479 41.5941 90.7408 39.244 85.8269 37.5348C80.913 35.6119 75.6786 34.6505 70.1237 34.6505C58.373 34.6505 48.652 38.603 40.9607 46.508C33.483 54.1994 29.7442 64.2408 29.7442 76.6324C29.7442 89.4514 33.3762 99.7065 40.6402 107.398C47.9043 115.089 57.198 118.935 68.5214 118.935C78.9901 118.935 87.5361 116.905 94.1592 112.846C100.996 108.573 104.414 103.125 104.414 96.5018C104.414 94.7926 103.667 93.938 102.171 93.938H80.6993C76.64 93.938 73.3284 92.7629 70.7647 90.4128C68.4145 88.0626 67.2395 84.9647 67.2395 81.1191C67.2395 77.487 68.4145 74.496 70.7647 72.1458C73.3284 69.7957 76.64 68.6206 80.6993 68.6206H115.951C121.72 68.6206 125.886 70.0093 128.45 72.7868C131.014 75.3506 132.295 79.7304 132.295 85.9262C132.295 103.873 126.42 118.187 114.669 128.869C103.132 139.552 87.7497 144.893 68.5214 144.893Z" fill="#E00201"/>
<path d="M167.535 143.932C163.476 143.932 160.057 142.757 157.28 140.407C154.502 138.056 153.114 135.065 153.114 131.433V59.6474C153.114 56.229 154.396 53.3448 156.959 50.9946C159.737 48.4309 163.262 47.149 167.535 47.149C171.381 47.149 174.478 48.324 176.829 50.6742C179.392 52.8106 180.888 55.4813 181.315 58.686C183.665 55.054 186.87 51.9561 190.929 49.3923C194.989 46.8285 199.262 45.5466 203.748 45.5466C206.526 45.5466 209.196 45.8671 211.76 46.508C214.751 47.3626 217.208 49.0718 219.131 51.6356C221.054 53.9857 222.015 56.7631 222.015 59.9679C222.015 64.4545 220.52 68.1933 217.529 71.1844C214.751 73.9618 211.44 74.9233 207.594 74.0687C204.817 73.4277 202.039 73.1072 199.262 73.1072C194.348 73.1072 190.288 74.8164 187.084 78.2348C183.879 81.6532 181.956 88.5968 181.315 99.0655V131.113C181.315 134.745 179.927 137.843 177.149 140.407C174.585 142.757 171.381 143.932 167.535 143.932Z" fill="#E00201"/>
<path d="M274.893 144.893C260.579 144.893 248.935 140.407 239.962 131.433C231.202 122.246 226.822 110.068 226.822 94.8994C226.822 79.7303 231.095 67.766 239.641 59.0065C248.401 50.0332 259.831 45.5466 273.932 45.5466C283.973 45.5466 292.733 49.0718 300.211 56.1222C301.065 53.5584 302.668 51.4219 305.018 49.7127C307.368 48.0036 310.145 47.149 313.35 47.149C317.623 47.149 321.041 48.4309 323.605 50.9946C326.383 53.3448 327.771 56.229 327.771 59.6474V132.395C327.771 136.027 326.383 139.018 323.605 141.368C321.041 143.718 317.623 144.893 313.35 144.893C306.3 144.893 301.92 141.795 300.211 135.599C293.374 141.795 284.935 144.893 274.893 144.893ZM277.137 118.935C283.973 118.935 289.421 116.692 293.481 112.205C297.54 107.505 299.57 101.736 299.57 94.8994C299.57 87.849 297.54 82.1873 293.481 77.9143C289.421 73.6414 283.973 71.5049 277.137 71.5049C270.513 71.5049 265.065 73.6414 260.792 77.9143C256.733 82.1873 254.703 87.849 254.703 94.8994C254.703 101.736 256.733 107.505 260.792 112.205C265.065 116.692 270.513 118.935 277.137 118.935Z" fill="#E00201"/>
<path d="M403.761 144.893C394.147 144.893 386.028 141.902 379.405 135.92C377.482 141.902 373.102 144.893 366.265 144.893C362.206 144.893 358.788 143.718 356.01 141.368C353.233 139.018 351.844 136.027 351.844 132.395V13.1789C351.844 9.76048 353.126 6.87622 355.69 4.52609C358.467 1.96231 361.993 0.68042 366.265 0.68042C370.325 0.68042 373.636 1.96231 376.2 4.52609C378.764 6.87622 380.046 9.86731 380.046 13.4993V55.4812C387.31 48.8581 395.535 45.5466 404.722 45.5466C418.823 45.5466 430.04 50.0332 438.372 59.0065C446.918 67.766 451.191 79.7303 451.191 94.8994C451.191 110.068 446.918 122.246 438.372 131.433C429.826 140.407 418.289 144.893 403.761 144.893ZM401.517 118.935C408.141 118.935 413.375 116.692 417.221 112.205C421.28 107.505 423.31 101.736 423.31 94.8994C423.31 87.849 421.28 82.1873 417.221 77.9143C413.375 73.6414 408.141 71.5049 401.517 71.5049C395.108 71.5049 389.874 73.6414 385.814 77.9143C381.969 82.1873 380.046 87.849 380.046 94.8994C380.046 101.736 381.969 107.505 385.814 112.205C389.874 116.692 395.108 118.935 401.517 118.935Z" fill="#E00201"/>
<path d="M485.198 144.893C481.139 144.893 477.721 143.718 474.943 141.368C472.166 139.018 470.777 136.027 470.777 132.395V59.6474C470.777 56.229 472.059 53.3448 474.623 50.9946C477.4 48.4309 480.925 47.149 485.198 47.149C489.471 47.149 492.783 48.4309 495.133 50.9946C497.697 53.3448 498.979 56.3358 498.979 59.9679V132.074C498.979 135.706 497.59 138.804 494.813 141.368C492.249 143.718 489.044 144.893 485.198 144.893ZM485.198 31.1253C480.712 31.1253 476.866 29.7366 473.661 26.9592C470.457 23.9681 468.854 20.2293 468.854 15.7426C468.854 11.6833 470.457 8.15812 473.661 5.16704C476.866 2.17596 480.712 0.68042 485.198 0.68042C489.471 0.68042 493.103 2.17596 496.095 5.16704C499.299 8.15812 500.902 11.6833 500.902 15.7426C500.902 20.2293 499.299 23.9681 496.095 26.9592C493.103 29.7366 489.471 31.1253 485.198 31.1253Z" fill="#E00201"/>
</svg>
