<svg width="967" height="206" viewBox="0 0 967 206" fill="none" xmlns="http://www.w3.org/2000/svg">
<path d="M60.2 200.48C48.44 200.48 37.9867 197.587 28.84 191.8C19.88 186.013 12.7867 177.707 7.56 166.88C2.52 156.053 0 143.267 0 128.52C0 113.4 2.52 100.52 7.56 89.88C12.7867 79.24 19.88 71.0267 28.84 65.24C37.9867 59.4533 48.44 56.56 60.2 56.56C70.4667 56.56 79.7067 58.9867 87.92 63.84C96.1333 68.6933 101.64 74.9467 104.44 82.6H101.36V0H151.2V197.4H102.48V172.48H105C102.387 180.88 96.88 187.693 88.48 192.92C80.2667 197.96 70.84 200.48 60.2 200.48ZM76.16 163.8C83.6267 163.8 89.7867 161 94.64 155.4C99.4933 149.8 101.92 140.84 101.92 128.52C101.92 116.013 99.4933 107.053 94.64 101.64C89.7867 96.04 83.6267 93.24 76.16 93.24C68.5067 93.24 62.2533 96.04 57.4 101.64C52.5467 107.053 50.12 116.013 50.12 128.52C50.12 140.84 52.5467 149.8 57.4 155.4C62.2533 161 68.5067 163.8 76.16 163.8Z" fill="#EC5A12"/>
<path d="M207.391 196.617C196.751 196.617 187.324 194.657 179.111 190.737C171.084 186.817 164.738 181.497 160.071 174.777C155.591 167.871 153.351 160.031 153.351 151.257C153.351 141.177 155.964 133.244 161.191 127.457C166.418 121.671 174.818 117.564 186.391 115.137C197.964 112.524 213.364 111.217 232.591 111.217H247.991V134.737H232.591C227.178 134.737 222.418 135.017 218.311 135.577C214.391 136.137 211.124 137.071 208.511 138.377C205.898 139.497 203.938 140.991 202.631 142.857C201.324 144.724 200.671 146.871 200.671 149.297C200.671 153.591 202.164 157.137 205.151 159.937C208.324 162.737 212.804 164.137 218.591 164.137C223.258 164.137 227.364 163.111 230.911 161.057C234.644 159.004 237.631 156.204 239.871 152.657C242.111 148.924 243.231 144.631 243.231 139.777V107.297C243.231 100.577 241.458 95.8174 237.911 93.0174C234.551 90.2174 228.671 88.8174 220.271 88.8174C213.178 88.8174 205.338 89.9374 196.751 92.1774C188.164 94.4174 179.764 97.8707 171.551 102.537L158.951 69.7774C163.804 66.4174 169.778 63.4307 176.871 60.8174C184.151 58.204 191.804 56.2441 199.831 54.9374C208.044 53.4441 215.604 52.6974 222.511 52.6974C237.818 52.6974 250.418 54.9374 260.311 59.4174C270.391 63.7107 277.858 70.4307 282.711 79.5774C287.751 88.5374 290.271 100.111 290.271 114.297V193.537H243.791V167.497H245.471C244.538 173.471 242.391 178.604 239.031 182.897C235.671 187.191 231.284 190.551 225.871 192.977C220.458 195.404 214.298 196.617 207.391 196.617Z" fill="#EC5A12"/>
<path d="M340.48 199.76L280 62H332.36L367.08 152.16H357.56L393.96 62H442.96L381.36 199.76H340.48Z" fill="#EC5A12"/>
<path d="M505.897 205.932C489.106 206.473 474.46 204.051 461.96 198.664C449.64 193.085 440.041 184.99 433.162 174.38C426.283 163.769 422.606 151.094 422.131 136.355C421.674 122.176 424.352 109.67 430.166 98.8369C436.16 87.8113 444.471 79.1389 455.1 72.8197C465.909 66.3079 478.31 62.8264 492.303 62.3751C506.295 61.9238 518.422 64.4276 528.684 69.8863C538.945 75.3451 546.955 83.3977 552.715 94.0443C558.655 104.498 561.857 116.908 562.32 131.274L562.672 142.188L464.163 145.365L463.405 121.857L525.533 119.854L521.172 123.636C520.847 113.562 518.461 106.168 514.014 101.456C509.56 96.5566 503.415 94.2335 495.579 94.4862C489.796 94.6727 484.803 96.2344 480.603 99.1714C476.582 101.916 473.537 105.936 471.467 111.232C469.396 116.528 468.487 123.094 468.74 130.93L468.821 133.449C469.104 142.218 470.546 149.268 473.145 154.601C475.932 159.927 480.073 163.809 485.567 166.246C491.056 168.497 497.905 169.49 506.114 169.225C513.204 168.997 520.54 167.733 528.123 165.434C535.887 162.943 542.688 159.548 548.526 155.251L561.895 187.597C554.968 192.863 546.422 197.154 536.257 200.47C526.092 203.786 515.972 205.607 505.897 205.932Z" fill="#EC5A12"/>
<path d="M568 200.84V63.08H616.44V87.16H613.36C617.84 78.3867 624.187 71.6667 632.4 67C640.8 62.3333 650.32 60 660.96 60C671.973 60 681.027 62.1467 688.12 66.44C695.213 70.5467 700.533 77.08 704.08 86.04C707.627 94.8133 709.4 105.92 709.4 119.36V200.84H659.56V121.32C659.56 115.72 658.907 111.24 657.6 107.88C656.293 104.333 654.333 101.813 651.72 100.32C649.293 98.8267 646.213 98.08 642.48 98.08C637.44 98.08 633.053 99.2 629.32 101.44C625.587 103.493 622.693 106.48 620.64 110.4C618.773 114.32 617.84 118.987 617.84 124.4V200.84H568Z" fill="#EC5A12"/>
<path d="M797.36 200.88C776.453 200.88 760.96 196.027 750.88 186.32C740.8 176.613 735.76 161.96 735.76 142.36V96.72H710V60.04H735.76V20H785.6V60.04H824.8V96.72H785.6V140.68C785.6 147.587 787.187 152.72 790.36 156.08C793.72 159.253 798.947 160.84 806.04 160.84C808.28 160.84 810.707 160.56 813.32 160C816.12 159.44 819.2 158.787 822.56 158.04L829.28 193.88C824.987 196.12 819.947 197.8 814.16 198.92C808.56 200.227 802.96 200.88 797.36 200.88Z" fill="#EC5A12"/>
<path d="M909.69 205.103C892.899 205.644 878.253 203.222 865.753 197.835C853.434 192.256 843.834 184.161 836.955 173.551C830.076 162.94 826.399 150.266 825.924 135.527C825.467 121.347 828.145 108.841 833.959 98.0081C839.953 86.9824 848.265 78.31 858.893 71.9908C869.702 65.479 882.103 61.9975 896.096 61.5462C910.089 61.095 922.216 63.5987 932.477 69.0574C942.738 74.5162 950.749 82.5688 956.508 93.2154C962.448 103.669 965.65 116.079 966.113 130.445L966.465 141.359L867.956 144.536L867.198 121.029L929.326 119.025L924.966 122.807C924.641 112.733 922.254 105.339 917.807 100.627C913.353 95.7277 907.209 93.4046 899.373 93.6573C893.589 93.8438 888.597 95.4055 884.396 98.3425C880.376 101.087 877.33 105.107 875.26 110.403C873.189 115.699 872.281 122.265 872.533 130.101L872.615 132.62C872.897 141.389 874.339 148.439 876.939 153.772C879.725 159.098 883.866 162.98 889.36 165.417C894.849 167.668 901.698 168.661 909.907 168.397C916.997 168.168 924.333 166.904 931.916 164.605C939.68 162.114 946.481 158.719 952.319 154.422L965.688 186.768C958.761 192.034 950.215 196.325 940.05 199.641C929.885 202.957 919.765 204.778 909.69 205.103Z" fill="#EC5A12"/>
</svg>
