<svg width="501" height="161" viewBox="0 0 501 161" fill="none" xmlns="http://www.w3.org/2000/svg">
<path d="M75.2149 160.853C61.2181 160.853 48.526 157.532 37.1387 150.89C25.7515 144.247 16.7366 135.232 10.094 123.845C3.45141 112.458 0.130127 99.5282 0.130127 85.0569C0.130127 70.5856 3.3328 57.7749 9.73813 46.6249C16.3807 35.2376 25.5142 26.2227 37.1387 19.5801C48.7632 12.9376 61.9298 9.61628 76.6383 9.61628C87.0767 9.61628 96.4474 10.9211 104.751 13.5307C113.291 16.1402 121.12 20.2918 128.237 25.9855C132.033 29.0695 133.931 33.1025 133.931 38.0844C133.931 42.1174 132.507 45.5573 129.66 48.4042C126.813 51.251 123.374 52.6744 119.341 52.6744C116.731 52.6744 113.766 51.6068 110.444 49.4717C105.225 46.1504 99.8873 43.5408 94.4309 41.643C88.9745 39.5079 83.1623 38.4403 76.9942 38.4403C63.9463 38.4403 53.1521 42.8291 44.6116 51.6068C36.3084 60.1473 32.1568 71.2973 32.1568 85.0569C32.1568 99.291 36.1898 110.678 44.2558 119.219C52.3218 127.759 62.6415 132.029 75.2149 132.029C86.8394 132.029 96.3288 129.776 103.683 125.268C111.275 120.524 115.07 114.474 115.07 107.12C115.07 105.222 114.24 104.273 112.579 104.273H88.7373C84.2299 104.273 80.5527 102.968 77.7059 100.359C75.0963 97.749 73.7915 94.3091 73.7915 90.0389C73.7915 86.0059 75.0963 82.6846 77.7059 80.075C80.5527 77.4654 84.2299 76.1606 88.7373 76.1606H127.881C134.286 76.1606 138.912 77.7026 141.759 80.7867C144.606 83.6335 146.029 88.4968 146.029 95.3766C146.029 115.304 139.506 131.199 126.458 143.061C113.647 154.923 96.5661 160.853 75.2149 160.853Z" fill="#E00201"/>
<path d="M185.159 159.786C180.652 159.786 176.856 158.481 173.772 155.872C170.688 153.262 169.146 149.941 169.146 145.908V66.1968C169.146 62.401 170.569 59.1983 173.416 56.5888C176.5 53.7419 180.415 52.3185 185.159 52.3185C189.43 52.3185 192.869 53.6233 195.479 56.2329C198.326 58.6053 199.986 61.5707 200.461 65.1292C203.071 61.0962 206.629 57.6563 211.137 54.8095C215.644 51.9627 220.389 50.5393 225.371 50.5393C228.455 50.5393 231.42 50.8951 234.267 51.6068C237.588 52.5558 240.316 54.4536 242.452 57.3005C244.587 59.91 245.654 62.9941 245.654 66.5526C245.654 71.5345 243.994 75.6862 240.672 79.0074C237.588 82.0915 233.911 83.159 229.641 82.2101C226.557 81.4984 223.473 81.1425 220.389 81.1425C214.932 81.1425 210.425 83.0404 206.866 86.8362C203.308 90.6319 201.173 98.3421 200.461 109.967V145.552C200.461 149.585 198.919 153.025 195.835 155.872C192.988 158.481 189.43 159.786 185.159 159.786Z" fill="#E00201"/>
<path d="M304.37 160.853C288.475 160.853 275.546 155.872 265.582 145.908C255.855 135.707 250.992 122.184 250.992 105.34C250.992 88.4968 255.737 75.2117 265.226 65.4851C274.953 55.5212 287.645 50.5393 303.302 50.5393C314.452 50.5393 324.179 54.4536 332.482 62.2824C333.431 59.4356 335.21 57.0632 337.82 55.1654C340.429 53.2675 343.514 52.3185 347.072 52.3185C351.817 52.3185 355.612 53.7419 358.459 56.5888C361.543 59.1983 363.085 62.401 363.085 66.1968V146.975C363.085 151.008 361.543 154.329 358.459 156.939C355.612 159.549 351.817 160.853 347.072 160.853C339.243 160.853 334.38 157.414 332.482 150.534C324.891 157.414 315.52 160.853 304.37 160.853ZM306.861 132.029C314.452 132.029 320.502 129.538 325.009 124.557C329.517 119.337 331.77 112.932 331.77 105.34C331.77 97.5117 329.517 91.225 325.009 86.4803C320.502 81.7356 314.452 79.3633 306.861 79.3633C299.506 79.3633 293.457 81.7356 288.712 86.4803C284.205 91.225 281.951 97.5117 281.951 105.34C281.951 112.932 284.205 119.337 288.712 124.557C293.457 129.538 299.506 132.029 306.861 132.029Z" fill="#E00201"/>
<path d="M447.464 160.853C436.788 160.853 427.774 157.532 420.419 150.89C418.284 157.532 413.421 160.853 405.829 160.853C401.322 160.853 397.526 159.549 394.442 156.939C391.358 154.329 389.816 151.008 389.816 146.975V14.5982C389.816 10.8024 391.239 7.59978 394.086 4.99019C397.17 2.14338 401.085 0.719971 405.829 0.719971C410.337 0.719971 414.014 2.14338 416.861 4.99019C419.708 7.59978 421.131 10.9211 421.131 14.9541V61.5707C429.197 54.2164 438.33 50.5393 448.532 50.5393C464.189 50.5393 476.644 55.5212 485.896 65.4851C495.385 75.2117 500.13 88.4968 500.13 105.34C500.13 122.184 495.385 135.707 485.896 145.908C476.407 155.872 463.596 160.853 447.464 160.853ZM444.973 132.029C452.327 132.029 458.14 129.538 462.41 124.557C466.917 119.337 469.171 112.932 469.171 105.34C469.171 97.5117 466.917 91.225 462.41 86.4803C458.14 81.7356 452.327 79.3633 444.973 79.3633C437.856 79.3633 432.044 81.7356 427.536 86.4803C423.266 91.225 421.131 97.5117 421.131 105.34C421.131 112.932 423.266 119.337 427.536 124.557C432.044 129.538 437.856 132.029 444.973 132.029Z" fill="#E00201"/>
</svg>
